<svg xmlns="http://www.w3.org/2000/svg" xmlns:xlink="http://www.w3.org/1999/xlink" version="1.1" x="0px" y="0px" viewBox="0 -5 24 30" fill="#303236" style="enable-background:new 0 0 24 24;" xml:space="preserve"><g><polygon points="9.022,3.457 9.622,3.457 9.622,2.613 10.466,2.613 10.466,2.013 9.622,2.013 9.622,1.169    9.022,1.169 9.022,2.013 8.178,2.013 8.178,2.613 9.022,2.613  "/><path d="M17.588,14.102l-1.123-0.319l-0.373-1.108l-0.651,0.97l-1.169,0.014l0.721,0.919l-0.348,1.115l1.097-0.401   l0.952,0.676L16.65,14.8L17.588,14.102z M15.786,14.955l-0.675,0.247l0.215-0.686l-0.443-0.565l0.718-0.008l0.401-0.597   l0.229,0.682l0.691,0.196l-0.576,0.429l0.025,0.718L15.786,14.955z"/><polygon points="11.093,17.444 10.792,16.55 10.265,17.333 9.322,17.344 9.904,18.086 9.622,18.986 10.508,18.662    11.277,19.208 11.243,18.266 12,17.703  "/><path d="M15.126,17.675l-0.373-1.107l-0.651,0.97l-1.169,0.014l0.721,0.919l-0.348,1.115l1.097-0.401l0.952,0.676   l-0.043-1.167l0.938-0.698L15.126,17.675z M15.032,19.264l-0.585-0.416l-0.675,0.247l0.215-0.686l-0.443-0.565l0.718-0.008   l0.401-0.597l0.229,0.682l0.691,0.196l-0.576,0.429L15.032,19.264z"/><polygon points="7.038,12.727 6.512,13.51 5.569,13.521 6.151,14.263 5.869,15.163 6.755,14.839 7.524,15.385    7.49,14.443 8.247,13.88 7.339,13.621  "/><path d="M9.947,12.238l0.953,0.676l-0.042-1.168l0.938-0.697l-1.124-0.32l-0.374-1.107l-0.652,0.97l-1.167,0.013   l0.72,0.919L8.85,12.639L9.947,12.238z M9.089,10.898l0.718-0.008l0.401-0.596l0.229,0.68l0.691,0.197L10.552,11.6l0.026,0.718   l-0.585-0.416l-0.674,0.247l0.214-0.685L9.089,10.898z"/><polygon points="12.9,12.126 13.786,11.802 14.555,12.348 14.521,11.405 15.278,10.842 14.371,10.584 14.069,9.69    13.543,10.473 12.6,10.483 13.182,11.226  "/><path d="M13.521,14.102l-1.123-0.319l-0.374-1.107l-0.652,0.97l-1.167,0.014l0.72,0.919l-0.349,1.115l1.097-0.401   l0.953,0.676L12.583,14.8L13.521,14.102z M11.718,14.955l-0.674,0.247l0.214-0.686l-0.443-0.565l0.718-0.008l0.401-0.597   l0.229,0.682l0.691,0.196l-0.576,0.429l0.026,0.718L11.718,14.955z"/><path d="M6.654,17.675l-0.374-1.107l-0.651,0.97l-1.168,0.014l0.721,0.919l-0.349,1.115l1.097-0.401l0.953,0.676   L6.84,18.692l0.938-0.698L6.654,17.675z M6.561,19.264l-0.586-0.416l-0.674,0.247l0.214-0.686l-0.443-0.565l0.718-0.008l0.4-0.597   l0.229,0.682l0.691,0.196l-0.576,0.429L6.561,19.264z"/><polygon points="19.611,18.056 18.704,17.798 18.403,16.904 17.876,17.687 16.933,17.697 17.515,18.439    17.234,19.34 18.119,19.016 18.889,19.562 18.854,18.619  "/><path d="M19.677,3.665l1.099-0.401l0.952,0.677l-0.043-1.168l0.938-0.697l-1.123-0.32l-0.373-1.107l-0.651,0.97   l-1.169,0.013l0.721,0.919L19.677,3.665z M19.917,1.924l0.718-0.008l0.401-0.596L21.265,2l0.691,0.197L21.38,2.626l0.025,0.718   L20.82,2.928l-0.675,0.247l0.215-0.686L19.917,1.924z"/><path d="M16.065,6.266c0.493,0.834,1.377,1.299,2.282,1.299c0.457,0,0.921-0.119,1.342-0.368l-0.152-0.258   c-1.113,0.657-2.556,0.288-3.214-0.825c-0.518-0.877-0.227-2.012,0.649-2.53c0.688-0.407,1.577-0.177,1.983,0.509   c0.153,0.259,0.196,0.563,0.121,0.855c-0.074,0.292-0.259,0.537-0.518,0.69c-0.201,0.118-0.436,0.151-0.661,0.094   s-0.415-0.2-0.534-0.401c-0.091-0.153-0.116-0.333-0.072-0.506c0.044-0.172,0.153-0.318,0.307-0.409l-0.152-0.258   C17.224,4.29,17.065,4.5,17.001,4.75c-0.063,0.25-0.026,0.511,0.105,0.733c0.159,0.27,0.414,0.461,0.717,0.539   c0.305,0.078,0.62,0.032,0.889-0.127c0.328-0.194,0.562-0.504,0.656-0.874c0.095-0.369,0.04-0.753-0.154-1.082   c-0.49-0.83-1.566-1.106-2.394-0.614C15.802,3.928,15.464,5.247,16.065,6.266z"/><path d="M14.577,3.2c0.721,0,1.307-0.586,1.307-1.307c0-0.721-0.586-1.307-1.307-1.307s-1.307,0.586-1.307,1.307   C13.271,2.613,13.856,3.2,14.577,3.2z M14.577,0.986c0.5,0,0.906,0.407,0.906,0.907s-0.406,0.906-0.906,0.906   s-0.906-0.406-0.906-0.906S14.077,0.986,14.577,0.986z"/><polygon points="6.406,6.43 7.292,6.106 8.061,6.652 8.026,5.71 8.784,5.147 7.876,4.888 7.575,3.995 7.049,4.777    6.106,4.788 6.688,5.53  "/><path d="M4.27,3.664c0.048-0.08,0.193-0.32-0.647-1.004C3.402,2.48,3.346,2.315,3.367,2.22   C3.379,2.163,3.42,2.123,3.482,2.106C3.588,2.08,3.758,2.123,3.933,2.321C4.326,2.768,4.764,3.017,5.04,2.953   c0.112-0.025,0.193-0.1,0.224-0.206c0.09-0.313-0.287-0.772-0.613-1.096c-0.244-0.274-0.352-0.432-0.4-0.517   c0.242,0.068,0.788,0.357,1.238,0.64L5.648,1.52c-1.44-0.905-1.618-0.698-1.685-0.62C3.826,1.061,3.947,1.31,4.432,1.857   c0.517,0.514,0.56,0.768,0.549,0.801C4.927,2.686,4.597,2.621,4.157,2.123C3.932,1.867,3.65,1.753,3.407,1.816   C3.235,1.861,3.11,1.988,3.073,2.157c-0.052,0.239,0.079,0.507,0.36,0.735C3.905,3.276,4.007,3.48,4.024,3.496   c-0.002,0.001-0.2,0.104-1.278-0.357L2.628,3.414c0.69,0.296,1.085,0.393,1.319,0.393C4.141,3.807,4.224,3.74,4.27,3.664z"/><path d="M22.78,4.113l-0.186-0.236c-0.075,0.059-0.731,0.589-0.63,1.096c0.052,0.259,0.281,0.446,0.683,0.557   c0.143,0.039,0.384,0.126,0.404,0.269c0.034,0.23-0.41,0.623-0.722,0.819c-0.068,0.033-0.67,0.337-0.683,0.817   c-0.009,0.298,0.212,0.572,0.655,0.817c0.29,0.16,0.437,0.33,0.435,0.504c-0.004,0.34-0.538,0.692-0.751,0.804   c-0.07,0.042-0.684,0.42-0.656,0.914c0.016,0.288,0.241,0.532,0.67,0.727c0.261,0.118,0.398,0.26,0.412,0.424   c0.031,0.385-0.569,0.875-0.804,1.03l0.166,0.25c0.102-0.067,0.987-0.676,0.937-1.304c-0.022-0.28-0.22-0.507-0.586-0.673   c-0.22-0.1-0.483-0.262-0.495-0.47c-0.016-0.266,0.362-0.552,0.502-0.635c0.092-0.048,0.897-0.483,0.905-1.062   c0.004-0.294-0.194-0.553-0.59-0.771c-0.231-0.127-0.506-0.326-0.5-0.546c0.006-0.254,0.373-0.487,0.528-0.563   c0.158-0.1,0.947-0.622,0.873-1.125c-0.034-0.237-0.244-0.41-0.621-0.514c-0.194-0.054-0.434-0.154-0.469-0.327   C22.203,4.637,22.627,4.233,22.78,4.113z"/><path d="M1.919,12.492c0.254,0.129,0.386,0.278,0.393,0.441c0.014,0.386-0.607,0.849-0.848,0.996l0.155,0.256   c0.104-0.063,1.015-0.632,0.992-1.262c-0.01-0.281-0.198-0.516-0.557-0.698c-0.215-0.109-0.472-0.283-0.474-0.49   c-0.003-0.267,0.386-0.536,0.529-0.613c0.094-0.043,0.918-0.444,0.95-1.022c0.017-0.293-0.17-0.561-0.556-0.795   C2.279,9.166,2.014,8.956,2.029,8.736c0.018-0.253,0.394-0.471,0.552-0.541c0.163-0.092,0.973-0.58,0.921-1.085   C3.478,6.872,3.276,6.689,2.903,6.569C2.711,6.507,2.477,6.397,2.45,6.223C2.406,5.945,2.848,5.559,3.005,5.446L2.831,5.202   C2.753,5.257,2.074,5.759,2.153,6.269C2.194,6.53,2.415,6.727,2.812,6.854C2.952,6.9,3.189,6.998,3.204,7.141   c0.024,0.231-0.437,0.604-0.756,0.787c-0.07,0.03-0.685,0.308-0.718,0.787C1.708,9.012,1.917,9.296,2.349,9.559   c0.283,0.173,0.422,0.349,0.413,0.523c-0.019,0.339-0.568,0.668-0.785,0.771c-0.072,0.039-0.701,0.39-0.695,0.884   C1.284,12.024,1.499,12.278,1.919,12.492z"/><path d="M21.713,21.453v-4.396c0-5.22-4.144-9.48-9.313-9.692V5.768c0.457-0.165,0.788-0.593,0.788-1.107   c0-0.656-0.532-1.188-1.188-1.188s-1.188,0.532-1.188,1.188c0,0.514,0.331,0.941,0.788,1.107v1.597   c-5.169,0.212-9.313,4.472-9.313,9.692v4.396h-1.73v1.76h22.885v-1.76H21.713z M3.087,17.058c0-4.915,3.998-8.913,8.913-8.913   c4.914,0,8.912,3.998,8.912,8.913v4.396H3.087V17.058z"/></g><text x="0" y="39" fill="#303236" font-size="5px" font-weight="bold" font-family="'Helvetica Neue', Helvetica, Arial-Unicode, Arial, Sans-serif">Created by myiconfinder</text><text x="0" y="44" fill="#000000" font-size="5px" font-weight="bold" font-family="'Helvetica Neue', Helvetica, Arial-Unicode, Arial, Sans-serif">from the Noun Project</text></svg>