<svg xmlns="http://www.w3.org/2000/svg" xmlns:xlink="http://www.w3.org/1999/xlink" viewBox="28 -15 40 125" version="1.1" x="0px" y="0px"><title>18-01-2015 - fridge</title><desc>Created with Sketch.</desc><g stroke="none" stroke-width="4" fill="" fill-rule="evenodd"><g fill="#659a41"><g transform="translate(25.000000, 5.468750)"><path d="M1.5625,16.40625 L1.5625,16.40625 C1.5625,20.7688555 1.71846431,23.7931207 1.97366051,25.703489 C2.05730642,26.3296523 2.14280771,26.7661283 2.21999618,27.0376458 C2.24008591,27.1083132 2.22798261,27.0794614 2.15863099,26.9731145 L2.32161554,27.2230424 L2.38103727,27.515441 C2.56827341,28.4367804 3.67058149,29.296875 4.69262156,29.296875 L45.3073784,29.296875 C46.2954518,29.296875 47.3403267,28.4494316 47.5384027,27.4916432 L47.5897363,27.3035107 C47.6709508,27.0654886 47.8233545,26.3823501 47.9851648,25.1549058 C48.2668487,23.0181356 48.4375,20.1348912 48.4375,16.40625 C48.4375,12.6776088 48.2668487,9.79436436 47.9851648,7.65759418 C47.8233545,6.43014988 47.6709508,5.74701145 47.5897363,5.50898927 L47.5330681,5.29386546 C47.3307558,4.22063859 46.1378106,2.97149892 45.0439948,2.68816454 L44.3084766,2.49764105 L44.0041317,1.80146553 C44.2247682,2.30616165 44.4537962,2.44516709 44.5862008,2.48576263 C44.2448952,2.38111759 43.5720799,2.25925431 42.5143402,2.14054497 C39.3098387,1.78090615 33.662584,1.5625 25,1.5625 C16.337372,1.5625 10.6930335,1.78038626 7.49348743,2.13915756 C6.43776947,2.25753726 5.76703638,2.37903183 5.42800494,2.48316456 C5.56645531,2.44063985 5.79982013,2.29816711 6.01836987,1.78346066 L5.69870746,2.53629754 L4.89790662,2.7026269 C3.86490758,2.91718472 2.64142733,4.19209943 2.37090386,5.34331924 L2.30824686,5.60995775 L2.15863099,5.83938548 C2.22798261,5.73303857 2.24008591,5.70418682 2.21999618,5.77485424 C2.14280771,6.04637165 2.05730642,6.48284773 1.97366051,7.10901103 C1.71846431,9.01937928 1.5625,12.0436445 1.5625,16.40625 L1.5625,16.40625 Z M0,16.40625 C1.07156595e-15,6.2890625 0.84983597,4.98588571 0.84983597,4.98588571 C1.24342945,3.31093822 2.88675186,1.52450343 4.58015121,1.17277797 C4.58015121,1.17277797 5.078125,-1.50576842e-15 25,0 C44.921875,1.50576849e-15 45.4358025,1.17558628 45.4358025,1.17558628 C47.0935943,1.60500906 48.7499398,3.31438916 49.0685247,5.00441894 C49.0685247,5.00441894 50,7.734375 50,16.40625 C50,25.078125 49.0685247,27.8080811 49.0685247,27.8080811 C48.7200194,29.4932642 47.0346244,30.859375 45.3073784,30.859375 L4.69262156,30.859375 C2.96390316,30.859375 1.19220931,29.5113427 0.84983597,27.8266143 C0.84983597,27.8266143 1.07156591e-15,26.5234375 0,16.40625 L0,16.40625 Z"/><path d="M1.5625,56.640625 L1.5625,56.640625 C1.5625,66.1736157 1.75678464,72.7345472 2.07884408,76.850672 C2.18932404,78.2626763 2.30604224,79.2644485 2.41902533,79.9179751 C2.47273327,80.2286373 2.50014364,80.3323946 2.47374601,80.2720467 L2.55859817,80.4660282 L2.58876703,80.6755958 C2.72152124,81.5977712 3.70776807,82.421875 4.69262156,82.421875 L45.3073784,82.421875 C46.2742305,82.421875 47.2560801,81.5961507 47.4149216,80.6552833 L47.4467116,80.4669806 L47.5229169,80.2918771 C47.4973218,80.3506892 47.525095,80.2453207 47.5791095,79.9326474 C47.6923762,79.276981 47.8093573,78.2731175 47.9200783,76.859154 C48.2428115,72.7376876 48.4375,66.173583 48.4375,56.640625 C48.4375,47.1076343 48.2432154,40.5467028 47.9211559,36.430578 C47.810676,35.0185737 47.6939578,34.0168015 47.5809747,33.3632749 C47.5272667,33.0526127 47.4998564,32.9488554 47.526254,33.0092033 L47.4414018,32.8152218 L47.411233,32.6056542 C47.2784788,31.6834788 46.2922319,30.859375 45.3073784,30.859375 L4.69262156,30.859375 C3.72576951,30.859375 2.74391987,31.6850993 2.58507845,32.6259667 L2.55328836,32.8142694 L2.47708313,32.9893729 C2.50267821,32.9305608 2.47490501,33.0359293 2.42089053,33.3486026 C2.30762381,34.004269 2.19064275,35.0081325 2.07992172,36.422096 C1.75718848,40.5435624 1.5625,47.107667 1.5625,56.640625 L1.5625,56.640625 Z M0,56.640625 C1.22464677e-15,34.765625 1.04438044,32.3658593 1.04438044,32.3658593 C1.33052997,30.6709061 2.96537564,29.296875 4.69262156,29.296875 L45.3073784,29.296875 C47.0360968,29.296875 48.7096667,30.6594312 48.9577899,32.3830155 C48.9577899,32.3830155 50,34.765625 50,56.640625 C50,78.515625 48.9556196,80.9153907 48.9556196,80.9153907 C48.66947,82.6103439 47.0346244,83.984375 45.3073784,83.984375 L4.69262156,83.984375 C2.96390316,83.984375 1.29033327,82.6218188 1.04221012,80.8982345 C1.04221012,80.8982345 1.2246468e-15,78.515625 0,56.640625 L0,56.640625 Z"/><rect x="6.25" y="83.984375" width="7.8125" height="3.125" rx="0.78125"/><rect x="35.9375" y="83.984375" width="7.8125" height="3.125" rx="0.78125"/><path d="M42.78319,37.8635974 L42.78319,37.8635974 L42.7832377,37.865912 C42.7861323,38.017316 42.7922446,38.3022668 42.8018763,38.7016641 C42.817943,39.367898 42.8381328,40.1104134 42.8627462,40.9100965 C42.9330565,43.1944555 43.0246688,45.4786134 43.1399325,47.6091558 C43.2877043,50.3405793 43.4637744,52.614731 43.6694342,54.2724003 C43.7838586,55.1946898 43.9056772,55.9082941 44.0309464,56.3828068 C44.0881483,56.5994843 44.1430929,56.7532691 44.1843682,56.829163 C44.1407457,56.7489532 44.0211974,56.640625 43.7429067,56.640625 C43.5440264,56.640625 43.4371787,56.7172647 43.4046116,56.7655467 C43.4504649,56.6975674 43.5128462,56.5540424 43.5777808,56.3477025 C43.723922,55.8833164 43.8612839,55.1780199 43.9844515,54.26423 C44.2070593,52.6126855 44.3768668,50.3430698 44.4991121,47.6163698 C44.5942803,45.4936294 44.6554808,43.2174978 44.6894407,40.9401332 C44.7013558,40.1410999 44.7090077,39.3984185 44.7132466,38.7310285 C44.7158044,38.3283059 44.716643,38.0416638 44.7166403,37.8810527 C44.7166403,37.8809617 44.7166403,37.8809617 44.7166492,37.8771328 C44.7174619,37.7060979 44.5570896,37.3869874 44.4182768,37.2854221 L44.2628069,37.1716694 L44.1780422,36.9986796 C44.2329275,37.1106907 44.2952219,37.1737385 44.3258509,37.1891753 C44.2417102,37.146769 44.0557696,37.109375 43.7429068,37.109375 C43.4292875,37.109375 43.2456894,37.1456386 43.1672739,37.1850504 C43.2078128,37.1646755 43.2779718,37.0919896 43.3340163,36.9682796 L43.2390979,37.177798 L43.0457908,37.3024568 C42.9311823,37.3763649 42.7792693,37.6860526 42.78319,37.8635974 L42.78319,37.8635974 Z M42.0021305,37.8808454 C41.9927216,37.454774 42.2605951,36.8791997 42.6223871,36.6458893 C42.6223871,36.6458893 42.7663443,36.328125 43.7429068,36.328125 C44.7194693,36.328125 44.8795976,36.6549186 44.8795976,36.6549186 C45.2226336,36.905908 45.499881,37.4619365 45.4978903,37.8808454 C45.4978903,37.8808454 45.5007191,57.421875 43.7429067,57.421875 C42.3757193,57.421875 42.0021305,37.8808454 42.0021305,37.8808454 L42.0021305,37.8808454 Z"/><path d="M42.7736445,10.5365883 L42.7736445,10.5365883 L42.7736613,10.5420165 C42.7736613,10.5419972 42.7736613,10.5419972 42.7736612,10.5421975 C42.7736548,10.6550841 42.7744765,10.8499338 42.7770161,11.1243719 C42.7812076,11.5773146 42.7887927,12.0808739 42.8006142,12.6222403 C42.8342389,14.162074 42.8948916,15.7003442 42.9891564,17.133651 C43.1100034,18.9711457 43.2778073,20.4984705 43.4960516,21.6003313 C43.6135468,22.1935349 43.7429451,22.6455497 43.8741696,22.929173 C43.9246505,23.0382803 43.9680088,23.1061257 43.9904416,23.1287423 C43.9516449,23.0896279 43.8639891,23.046875 43.745129,23.046875 C43.6262689,23.046875 43.5386131,23.0896279 43.4998163,23.1287423 C43.5222492,23.1061258 43.5656074,23.0382803 43.6160883,22.929173 C43.7473129,22.6455498 43.8767111,22.1935349 43.9942063,21.6003313 C44.2124506,20.4984705 44.3802545,18.9711457 44.5011016,17.133651 C44.5953663,15.700344 44.656019,14.1620737 44.6896437,12.6222399 C44.7014653,12.0808735 44.7090504,11.5773142 44.7132419,11.1243715 C44.7157815,10.8499335 44.7166031,10.6550839 44.7165967,10.5421975 C44.7165967,10.5419971 44.7165967,10.5419971 44.7166249,10.5350685 C44.7181288,10.3583592 44.5607784,10.0443104 44.4204991,9.94167215 L44.2650292,9.82791944 L44.1802645,9.65492958 C44.2351497,9.76694075 44.2974441,9.82998852 44.3280732,9.84542532 C44.2439324,9.803019 44.0579918,9.765625 43.7451291,9.765625 C43.4315097,9.765625 43.2479116,9.8018886 43.1694962,9.84130036 C43.210035,9.82092545 43.280194,9.74823965 43.3362385,9.62452959 L43.2413202,9.83404798 L43.0480131,9.9587068 C42.9303546,10.0345817 42.7724297,10.3515452 42.7736445,10.5365883 L42.7736445,10.5365883 Z M41.9924113,10.5417169 C41.9895975,10.1130932 42.2628174,9.53544974 42.6246094,9.30213928 C42.6246094,9.30213928 42.7685666,8.984375 43.7451291,8.984375 C44.7216915,8.984375 44.8818199,9.31116864 44.8818199,9.31116864 C45.2248559,9.56215796 45.5014931,10.1132393 45.4978466,10.5417169 C45.4978466,10.5417169 45.5029414,23.828125 43.745129,23.828125 C41.9873165,23.828125 41.9924113,10.5417169 41.9924113,10.5417169 L41.9924113,10.5417169 Z"/></g></g></g><text x="0" y="115" fill="#000000" font-size="5px" font-weight="bold" font-family="'Helvetica Neue', Helvetica, Arial-Unicode, Arial, Sans-serif">Created by Andrea Mazzini</text><text x="0" y="120" fill="#000000" font-size="5px" font-weight="bold" font-family="'Helvetica Neue', Helvetica, Arial-Unicode, Arial, Sans-serif">from the Noun Project</text></svg>