<svg xmlns="http://www.w3.org/2000/svg" xmlns:xlink="http://www.w3.org/1999/xlink" xml:space="preserve" version="1.1" style="shape-rendering:geometricPrecision;text-rendering:geometricPrecision;image-rendering:optimizeQuality;" viewBox="0 -30 279 313.75" x="0px" y="0px" fill="#303236" clip-rule="evenodd"><defs><style type="text/css">
   
    .fil0 {fill:black;fill-rule:nonzero}
   
  </style></defs><g><path class="fil0" d="M76 0c37,0 41,17 64,36 22,-19 26,-36 64,-36 42,0 73,34 75,75 3,60 -94,146 -139,176 -37,-23 -77,-61 -103,-95 -22,-27 -38,-56 -37,-81 2,-41 34,-75 76,-75zm0 8c-38,0 -67,31 -68,68 -1,22 14,49 35,76 30,38 73,74 97,90 41,-28 134,-112 131,-166 -1,-37 -29,-68 -67,-68 -39,0 -41,22 -64,37 -24,-15 -26,-37 -64,-37z"/></g><text x="0" y="266" fill="#000000" font-size="5px" font-weight="bold" font-family="'Helvetica Neue', Helvetica, Arial-Unicode, Arial, Sans-serif"></text><text x="0" y="271" fill="#000000" font-size="5px" font-weight="bold" font-family="'Helvetica Neue', Helvetica, Arial-Unicode, Arial, Sans-serif"></text></svg>